<svg xmlns="http://www.w3.org/2000/svg" viewBox="0 0 85.94 41.25"><defs><linearGradient id="svgicona" x1="42.97" y1="29.75" x2="42.97" y2=".69" gradientTransform="matrix(1 0 0 -1 0 41.5)" gradientUnits="userSpaceOnUse"><stop offset="0" stop-color="#c6007e"/><stop offset="1" stop-color="#06038d"/></linearGradient></defs><path fill="url(#svgicona)" fill-rule="evenodd" d="M39.22 0A1.27 1.27 0 0038 1.08l-.64 3.84h-4.6a1.26 1.26 0 00-1.13.72l-6.44 14.29-.64-13.82a1.28 1.28 0 00-1.25-1.19h-5.86a1.27 1.27 0 00-1.13.72L9.68 20 9 6.22a1.27 1.27 0 00-1.25-1.3H1.26a1.26 1.26 0 00-.93.41 1.42 1.42 0 00-.33 1l2.93 29.2a1.27 1.27 0 001.24 1.17H9a1.59 1.59 0 001.42-.89l7.4-14.74.91 14.47A1.28 1.28 0 0020 36.7h4.81a1.6 1.6 0 001.42-.89l9-18.34-1.75 10.34a1.37 1.37 0 00.27 1.07 1.25 1.25 0 001 .46h5.7a1.26 1.26 0 001.23-1L44.38 12h9.8l-14.8 20.16A4.84 4.84 0 0036.21 31a5.14 5.14 0 104.92 5.73H80.2a1.27 1.27 0 001.24-1.08l.89-5.29a1.37 1.37 0 00-.28-1.07 1.21 1.21 0 00-1-.45H71L85.74 8.7a1.26 1.26 0 00.06-1.27 1.17 1.17 0 00-1-.66H68.94l1-1.36A1.34 1.34 0 0070 4.07a1.26 1.26 0 00-1.11-.7H45.84l.32-1.85a1.39 1.39 0 00-.29-1.07 1.2 1.2 0 00-.95-.45zm-6.54 6.39a.32.32 0 01.32-.16h5.44l.79-4.68a.28.28 0 01.29-.24h5.09a.28.28 0 01.23.1.38.38 0 01.07.25l-.51 3h24a.29.29 0 01.26.16.28.28 0 010 .29L66.4 8.07h17.75a.23.23 0 01.21.13.2.2 0 010 .21L69.6 28.5a1.27 1.27 0 000 1 1.22 1.22 0 00.81.58h10.34a.29.29 0 01.22.11.33.33 0 01.07.24l-.79 4.69a.3.3 0 01-.3.25H39.81a3.38 3.38 0 01.07.72 3.68 3.68 0 11-3.68-3.83 3.66 3.66 0 013.23 2l16.09-21.93a1.06 1.06 0 000-1.1 1 1 0 00-.91-.51H43.33l-2.88 17.09a.3.3 0 01-.29.23h-5.1a.29.29 0 01-.22-.11.3.3 0 01-.07-.24L37.9 9.14 25.18 35.06a.63.63 0 01-.56.34h-4.33a.29.29 0 01-.3-.25L18.8 16.34 9.4 35.06a.64.64 0 01-.56.34h-4.4a.3.3 0 01-.29-.26L1.29 6.55a.3.3 0 01.07-.23.29.29 0 01.22-.09h5.91a.31.31 0 01.3.31l.88 18.65 8.69-18.8a.29.29 0 01.26-.16h5.39a.28.28 0 01.29.25l.87 18.79zm29.85 7L52.08 27.55A1.11 1.11 0 0052 28.7a1.06 1.06 0 001 .62h9.33L72.79 15a1.09 1.09 0 00.1-1.09 1 1 0 00-.9-.56zm.63 1.3h8.3L61.63 28h-8.31z"/></svg>